<?xml version="1.0" encoding="UTF-8"?>
<svg id="Capa_1" xmlns="http://www.w3.org/2000/svg" version="1.1" viewBox="0 0 104.2 19.5">
  <!-- Generator: Adobe Illustrator 30.6.0, SVG Export Plug-In . SVG Version: 2.1.4 Build 109)  -->
  <defs>
    <style>
      .st0 {
        fill: #12129b;
      }
    </style>
  </defs>
  <path class="st0" d="M19.2,9.9c.7.2,1.4.7,1.9,1.3.5.6.8,1.4.8,2.4,0,1.9-.7,3.4-2,4.4-1.4,1-3.4,1.5-6.1,1.5H0V.3h13.8c1.5,0,2.8.2,3.8.6s1.8,1,2.3,1.8c.5.8.8,1.6.8,2.6h0c0,.9-.2,1.6-.5,2.2-.4.6-.8,1.1-1.4,1.4s-1.1.5-1.7.5c.7,0,1.4,0,2.1.3h0s0,0,0,0ZM16,13.4c0-.5-.2-.9-.6-1.1s-.9-.3-1.5-.3H5.6v3h8.1c.8,0,1.3-.1,1.7-.4s.6-.6.6-1.2h0c0,0,0,0,0,0h0ZM5.6,7.8h7.1c.8,0,1.3-.1,1.7-.3.4-.2.6-.6.6-1.2h0c0-.6-.2-1-.6-1.2-.4-.2-.9-.3-1.7-.3h-7.1v3h0Z"/>
  <path class="st0" d="M39.2,19.5h-8.2L21.9.3h7.1l6.1,14.8L41.1.3h7.1l-9,19.2h0Z"/>
  <path class="st0" d="M62.5,5.1v14.4h-6.1V5.1h-8V.3h22.1v4.8h-8Z"/>
  <path class="st0" d="M89.2,1.4c1.7.9,2.6,2.5,2.6,4.7s-.3,2.6-1,3.3-1.6,1.3-2.7,1.6c-.6.2-1.2.3-2.1.5s-1.7.3-2.8.4c-.8.1-1.5.2-2.1.3s-1.1.2-1.4.3c-.8.2-1.3.5-1.7.8-.3.3-.6.8-.6,1.4h14v4.7h-19.8c0-.4,0-.8,0-1.1s0-.6,0-.9c0-1.9.2-3.5.7-4.8.5-1.3,1.3-2.3,2.4-3.1,1.1-.8,2.6-1.4,4.5-1.7.4,0,.9-.2,1.5-.2.6,0,1.2-.1,1.9-.2.8,0,1.5-.1,1.9-.2.4,0,.8-.2,1-.3.3-.2.4-.4.4-.7s-.1-.7-.4-.9-.7-.3-1.2-.4c-.5,0-1.2,0-2.1,0h-.7c-.9,0-1.9,0-2.9.2s-2,.4-2.9.7c-.9.3-1.5.6-2,.8l-1.4-5.2c1.3-.5,2.8-.9,4.5-1.1.9-.1,1.8-.2,2.6-.3s1.7-.1,2.5-.1c3.1,0,5.6.5,7.2,1.4h0,0Z"/>
  <path class="st0" d="M98.7,19.5V6.4c-.6.3-1.2.6-1.7.8s-.9.4-1.3.6c-.4.2-.7.3-1.1.5s-.8.3-1.2.5l-.5-4.9c1.2-.5,2.4-1,3.7-1.7,1.3-.6,2.6-1.3,4-2h3.7v19.2s-5.5,0-5.5,0Z"/>
</svg>